<svg version="1.1" xmlns="http://www.w3.org/2000/svg" xmlns:xlink="http://www.w3.org/1999/xlink" width="143.66000366210938" height="117.82000732421875"><defs></defs><g transform="translate(-75.78031158447266,52.029998779296875)"><rect fill="rgb(255,255,255)" stroke="none" x="0" y="0" width="143.66000366210938" height="117.82000732421875" fill-opacity="0" transform="translate(75.78031158447266,-52.029998779296875)"></rect><g transform="translate(72.3203125,59) rotate(0,0,0) translate(-72.3203125,-59) matrix(1,0,0,1,72.3203125,59)"><path fill="rgb(255,255,255)" fill-opacity="1" d="M14.88-104.53L14.88-104.53Q14.88-104.88 14.97-105.14Q15.06-105.41 15.41-105.63L15.41-105.63Q15.67-105.76 16.07-106.00Q16.47-106.24 16.86-106.24L16.86-106.24Q17.08-106.24 17.28-106.13Q17.48-106.02 17.48-105.80L17.48-105.80Q17.56-104.18 17.50-100.37Q17.43-96.57 17.21-91.48L17.21-91.48Q19.89-95.61 22.86-99.19Q25.83-102.77 28.86-105.41Q31.89-108.04 34.90-109.54Q37.91-111.03 40.72-111.03L40.72-111.03Q42.83-111.03 44.52-110.39Q46.22-109.76 47.45-108.28Q48.68-106.81 49.34-104.37Q50.00-101.93 50.00-98.33L50.00-98.33Q50.00-95.17 49.16-91.32Q48.33-87.48 46.81-83.54Q45.29-79.61 43.18-75.92Q41.08-72.23 38.50-69.37Q35.93-66.51 33.01-64.78Q30.09-63.04 26.92-63.04L26.92-63.04Q24.73-63.04 23.17-63.81Q21.61-64.58 20.49-65.77Q19.37-66.95 18.69-68.47Q18.00-69.99 17.61-71.44Q17.21-72.89 17.06-74.18Q16.91-75.48 16.86-76.27L16.86-76.27L17.74-76.45Q18.88-71.08 21.12-68.47Q23.37-65.86 27.50-65.86L27.50-65.86Q30.79-65.86 33.54-67.35Q36.29-68.84 38.44-71.33Q40.59-73.81 42.22-77.00Q43.84-80.18 44.90-83.54Q45.95-86.91 46.48-90.20Q47.01-93.50 47.01-96.18L47.01-96.18Q47.01-98.24 46.66-100.29Q46.30-102.33 45.45-103.96Q44.59-105.58 43.21-106.59Q41.82-107.60 39.71-107.60L39.71-107.60Q36.86-107.60 33.89-106.24Q30.92-104.88 28.02-102.44Q25.12-100.00 22.35-96.66Q19.59-93.32 17.13-89.32L17.13-89.32Q16.91-84.44 16.55-78.95Q16.20-73.46 15.67-68.05Q15.15-62.65 14.40-57.70Q13.65-52.76 12.66-48.98Q11.68-45.20 10.45-42.96Q9.21-40.72 7.68-40.72L7.68-40.72Q6.14-40.72 5.30-42.06Q4.47-43.40 4.05-45.31Q3.63-47.22 3.55-49.31Q3.46-51.40 3.46-52.89L3.46-52.89Q3.46-56.50 4.25-60.65Q5.04-64.80 6.49-69.20Q7.94-73.59 9.94-78.05Q11.94-82.51 14.36-86.73L14.36-86.73Q14.62-91.92 14.75-96.57Q14.88-101.23 14.88-104.53ZM7.85-44.50L7.85-44.50Q8.60-44.50 9.28-46.15Q9.96-47.79 10.58-50.67Q11.19-53.55 11.72-57.42Q12.25-61.29 12.71-65.70Q13.17-70.12 13.52-74.84Q13.87-79.57 14.14-84.18L14.14-84.18Q12.29-80.49 10.77-76.56Q9.26-72.62 8.16-68.62Q7.06-64.63 6.47-60.65Q5.88-56.67 5.88-52.89L5.88-52.89Q5.88-51.31 6.01-49.79Q6.14-48.28 6.40-47.09Q6.67-45.90 7.04-45.20Q7.41-44.50 7.85-44.50ZM58.30-53.24L58.30-53.24Q58.30-53.55 58.32-53.99Q58.35-54.43 58.35-54.87Q58.35-55.31 58.37-55.64Q58.39-55.97 58.39-56.10L58.39-56.10Q58.39-56.41 58.28-56.50Q58.17-56.58 58.04-56.01L58.04-56.01Q57.95-55.84 57.69-55.00Q57.42-54.17 56.94-53.00Q56.46-51.84 55.77-50.50Q55.09-49.16 54.17-48.04Q53.25-46.92 52.11-46.17Q50.96-45.42 49.60-45.42L49.60-45.42Q47.54-45.42 46.68-46.54Q45.82-47.66 45.82-49.90L45.82-49.90Q45.82-50.56 45.95-51.81Q46.08-53.07 46.26-54.41Q46.44-55.75 46.57-56.96Q46.70-58.17 46.70-58.82L46.70-58.82Q46.70-60.71 45.73-60.71L45.73-60.71Q45.51-60.71 45.34-60.67Q45.16-60.63 45.07-60.63L45.07-60.63Q44.72-60.63 44.72-60.98L44.72-60.98Q44.72-61.11 45.10-61.44Q45.47-61.77 46.70-61.77L46.70-61.77Q48.11-61.77 48.66-60.71Q49.21-59.66 49.21-58.25L49.21-58.25Q49.21-57.64 49.10-56.52Q48.99-55.40 48.85-54.17Q48.72-52.94 48.61-51.81Q48.50-50.69 48.50-50.17L48.50-50.17Q48.50-48.50 49.05-47.82Q49.60-47.13 50.57-47.13L50.57-47.13Q51.49-47.13 52.39-47.86Q53.29-48.58 54.06-49.62Q54.83-50.65 55.40-51.75Q55.97-52.85 56.32-53.59L56.32-53.59Q56.68-54.56 56.94-55.70Q57.20-56.85 57.44-58.01Q57.69-59.18 57.86-60.23Q58.04-61.29 58.21-62.08L58.21-62.08Q58.30-62.47 59.05-62.63Q59.80-62.78 60.54-62.78L60.54-62.78Q60.94-62.78 60.94-62.52L60.94-62.52Q60.94-61.42 60.89-59.53Q60.85-57.64 60.85-55.66L60.85-55.66Q60.85-50.74 61.44-48.56Q62.04-46.39 63.79-46.39L63.79-46.39Q64.19-46.39 64.48-46.48Q64.76-46.56 64.98-46.56L64.98-46.56Q65.16-46.56 65.16-46.39L65.16-46.39Q65.16-46.52 65.16-46.34Q65.16-46.17 64.96-45.88Q64.76-45.60 64.21-45.35Q63.66-45.11 62.56-45.11L62.56-45.11Q61.38-45.11 60.61-45.53Q59.84-45.95 59.36-46.92Q58.87-47.88 58.63-49.44Q58.39-51.00 58.30-53.24ZM66.78-49.20L66.26-49.55Q67.75-51.92 68.94-54.41Q70.12-56.89 70.91-59.26L70.91-59.26Q69.86-60.76 69.13-62.32Q68.41-63.88 68.41-65.55L68.41-65.55Q68.41-67.17 68.72-68.49Q69.02-69.81 69.55-70.73Q70.08-71.66 70.74-72.16Q71.40-72.67 72.10-72.67L72.10-72.67Q73.07-72.67 73.66-71.70Q74.25-70.73 74.17-69.24L74.17-69.24Q74.08-67.48 73.70-65.46Q73.33-63.44 72.63-61.33L72.63-61.33Q73.51-60.32 74.45-59.33Q75.40-58.34 76.17-57.29Q76.93-56.23 77.44-55.02Q77.95-53.81 77.95-52.41L77.95-52.41Q77.95-50.47 77.22-48.85Q76.50-47.22 75.48-46.04Q74.47-44.85 73.38-44.19Q72.28-43.53 71.49-43.53L71.49-43.53Q70.12-43.53 69.40-44.23Q68.67-44.94 68.67-45.77L68.67-45.77Q68.67-46.43 68.89-47.09Q69.11-47.75 69.40-48.30Q69.68-48.85 69.97-49.20Q70.25-49.55 70.39-49.55L70.39-49.55Q70.61-49.55 70.67-49.40Q70.74-49.24 70.74-49.11L70.74-49.11Q70.74-48.89 70.69-48.50Q70.65-48.10 70.65-47.84L70.65-47.84Q70.65-47.09 71.16-46.61Q71.66-46.12 72.80-46.12L72.80-46.12Q73.29-46.12 73.90-46.34Q74.52-46.56 75.09-47.05Q75.66-47.53 76.03-48.26Q76.41-48.98 76.41-49.99L76.41-49.99Q76.41-50.91 75.97-51.92Q75.53-52.94 74.83-53.99Q74.12-55.04 73.27-56.14Q72.41-57.24 71.57-58.38L71.57-58.38Q70.56-55.88 69.35-53.53Q68.15-51.18 66.78-49.20L66.78-49.20ZM69.60-67.83L69.60-67.83Q69.60-66.16 70.21-64.87Q70.83-63.57 71.84-62.34L71.84-62.34Q72.19-63.70 72.32-64.95Q72.45-66.21 72.45-67.35L72.45-67.35Q72.45-70.43 71.09-70.43L71.09-70.43Q70.69-70.43 70.15-69.83Q69.60-69.24 69.60-67.83ZM83.09-50.91L83.09-50.91Q83.09-52.06 83.22-54.63Q83.35-57.20 83.53-61.15Q83.70-65.11 83.83-70.38Q83.97-75.66 83.97-82.20L83.97-82.20Q83.97-85.41 83.94-88.38Q83.92-91.34 83.88-93.65Q83.83-95.96 83.81-97.39Q83.79-98.81 83.79-98.95L83.79-98.95Q83.79-99.30 83.90-99.56Q84.01-99.83 84.36-100.04L84.36-100.04Q84.63-100.18 85.00-100.42Q85.37-100.66 85.77-100.66L85.77-100.66Q86.25-100.66 86.51-100.40L86.51-100.40Q86.78-100.18 86.93-99.58Q87.09-98.99 87.17-97.56Q87.26-96.13 87.28-93.61Q87.31-91.08 87.31-87.08L87.31-87.08Q87.31-83.39 87.13-79.43Q86.95-75.48 86.71-71.66Q86.47-67.83 86.19-64.32Q85.90-60.80 85.66-57.99Q85.42-55.18 85.24-53.31Q85.06-51.44 85.06-50.91L85.06-50.91Q85.06-50.69 85.06-50.39Q85.06-50.08 85.11-49.79Q85.15-49.51 85.24-49.31Q85.33-49.11 85.50-49.11L85.50-49.11Q85.94-49.11 86.43-50.52Q86.91-51.92 87.66-54.30L87.66-54.30Q88.14-55.79 88.76-57.33Q89.37-58.87 90.05-60.12Q90.73-61.37 91.46-62.16Q92.18-62.96 92.89-62.96L92.89-62.96Q93.41-62.96 93.79-62.65Q94.16-62.34 94.42-61.88Q94.69-61.42 94.82-60.89Q94.95-60.36 95.04-59.88L95.04-59.88Q95.08-59.35 95.17-58.30Q95.26-57.24 95.35-55.88Q95.44-54.52 95.55-53.02Q95.66-51.53 95.79-50.17L95.79-50.17Q96.01-47.71 96.97-46.61Q97.94-45.51 99.48-45.51L99.48-45.51Q100.09-45.51 100.45-45.60Q100.80-45.68 101.10-45.68L101.10-45.68Q101.32-45.68 101.19-45.25L101.19-45.25Q101.10-45.07 100.45-44.65Q99.79-44.23 98.12-44.23L98.12-44.23Q96.71-44.23 95.77-44.70Q94.82-45.16 94.27-46.15Q93.72-47.13 93.44-48.74Q93.15-50.34 93.06-52.58L93.06-52.58Q92.97-53.86 92.91-55.24Q92.84-56.63 92.69-57.77Q92.54-58.91 92.27-59.64Q92.01-60.36 91.52-60.36L91.52-60.36Q91.13-60.36 90.65-59.46Q90.16-58.56 89.70-57.35Q89.24-56.14 88.84-54.94Q88.45-53.73 88.23-53.07L88.23-53.07Q88.05-52.54 87.70-51.31Q87.35-50.08 86.87-48.80Q86.38-47.53 85.81-46.56Q85.24-45.60 84.63-45.60L84.63-45.60Q84.10-45.60 83.79-46.19Q83.48-46.78 83.33-47.64Q83.17-48.50 83.13-49.40Q83.09-50.30 83.09-50.91ZM105.32-70.78L105.32-70.78Q105.54-70.78 105.48-69.92Q105.41-69.06 105.26-67.72Q105.10-66.38 104.93-64.76Q104.75-63.13 104.75-61.59L104.75-61.59Q104.75-58.47 104.82-55.75Q104.88-53.02 105.02-50.43L105.02-50.43Q106.47-52.85 107.98-54.83Q109.50-56.80 111.04-58.21Q112.57-59.62 114.11-60.38Q115.65-61.15 117.19-61.15L117.19-61.15Q118.42-61.15 119.25-60.47Q120.09-59.79 120.09-58.08L120.09-58.08Q120.09-56.85 119.58-55.59Q119.08-54.34 118.22-53.09Q117.36-51.84 116.29-50.65Q115.21-49.46 114.11-48.41L114.11-48.41Q111.48-45.95 108.18-43.62L108.18-43.62L107.74-44.15Q110.33-46.39 112.40-48.54L112.40-48.54Q113.28-49.46 114.11-50.45Q114.95-51.44 115.61-52.43Q116.27-53.42 116.68-54.32Q117.10-55.22 117.10-56.01L117.10-56.01Q117.10-56.28 117.03-56.71Q116.97-57.15 116.71-57.57Q116.44-57.99 115.94-58.27Q115.43-58.56 114.60-58.56L114.60-58.56Q113.58-58.56 112.44-57.86Q111.30-57.15 110.09-55.86Q108.88-54.56 107.63-52.69Q106.38-50.83 105.15-48.54L105.15-48.54Q105.32-45.38 105.54-42.43Q105.76-39.49 105.96-36.57Q106.16-33.64 106.27-30.61Q106.38-27.58 106.38-24.24L106.38-24.24Q106.38-16.50 105.52-10.70Q104.66-4.90 103.32-1.01Q101.98 2.88 100.29 4.83Q98.60 6.79 96.93 6.79L96.93 6.79Q95.96 6.79 95.02 6.00Q94.07 5.20 93.35 3.69Q92.62 2.17 92.16-0.03Q91.70-2.22 91.70-5.08L91.70-5.08Q91.70-9.25 92.49-14.35Q93.28-19.45 94.71-24.79Q96.14-30.13 98.07-35.42Q100.01-40.72 102.25-45.33L102.25-45.33L102.25-49.73Q102.25-54.91 102.66-58.85Q103.08-62.78 103.61-65.44Q104.14-68.10 104.64-69.44Q105.15-70.78 105.32-70.78ZM103.26-22.44L103.26-22.44Q103.26-26.30 103.15-28.92Q103.04-31.53 102.88-33.67Q102.73-35.80 102.58-37.91Q102.42-40.02 102.33-42.87L102.33-42.87Q100.67-39.09 99.21-34.76Q97.76-30.44 96.64-25.82Q95.52-21.21 94.89-16.50Q94.25-11.80 94.25-7.32L94.25-7.32Q94.25-5.61 94.42-3.50Q94.60-1.39 95.06 0.46Q95.52 2.30 96.25 3.56Q96.97 4.81 98.12 4.81L98.12 4.81Q99.00 4.81 99.74 3.71Q100.49 2.61 101.06 0.68Q101.63-1.26 102.05-3.87Q102.47-6.49 102.73-9.52Q102.99-12.55 103.13-15.85Q103.26-19.14 103.26-22.44ZM138.15-59.44L138.15-59.44Q137.75-59.44 137.43-59.90Q137.10-60.36 136.57-60.89Q136.04-61.42 135.23-61.88Q134.42-62.34 133.10-62.34L133.10-62.34Q131.25-62.34 129.67-61.40Q128.09-60.45 126.94-59.02Q125.80-57.59 125.16-55.90Q124.53-54.21 124.53-52.72L124.53-52.72Q124.53-50.39 125.71-48.89Q126.90-47.40 128.88-47.40L128.88-47.40Q130.42-47.40 131.58-47.99Q132.75-48.58 133.54-49.55L133.54-49.55Q133.27-50.74 133.27-52.50L133.27-52.50Q133.27-54.39 133.56-55.57Q133.84-56.76 134.26-57.42Q134.68-58.08 135.12-58.32Q135.56-58.56 135.87-58.56L135.87-58.56Q136.22-58.56 136.68-58.08Q137.14-57.59 137.14-56.36L137.14-56.36Q137.14-54.83 136.59-53.13Q136.04-51.44 135.07-49.90L135.07-49.90Q135.60-48.54 136.70-47.93Q137.80-47.31 139.21-47.31L139.21-47.31Q140.44-47.31 141.51-47.86Q142.59-48.41 143.53-49.33Q144.48-50.25 145.31-51.46Q146.15-52.67 146.85-53.95L146.85-53.95L147.12-53.77Q146.59-52.10 145.71-50.52Q144.83-48.94 143.69-47.71Q142.54-46.48 141.20-45.75Q139.86-45.03 138.41-45.03L138.41-45.03Q137.32-45.03 136.02-45.75Q134.72-46.48 133.89-48.37L133.89-48.37Q132.53-46.74 130.77-45.66Q129.01-44.59 126.99-44.59L126.99-44.59Q125.85-44.59 124.92-45.11Q124-45.64 123.36-46.52Q122.73-47.40 122.37-48.58Q122.02-49.77 122.02-51.09L122.02-51.09Q122.02-53.33 123.01-55.57Q124-57.81 125.65-59.62Q127.30-61.42 129.43-62.54Q131.56-63.66 133.89-63.66L133.89-63.66Q135.60-63.66 136.77-63.28Q137.93-62.91 138.63-62.41Q139.34-61.90 139.64-61.37Q139.95-60.85 139.95-60.54L139.95-60.54Q139.95-59.92 139.31-59.68Q138.68-59.44 138.15-59.44ZM134.46-53.59L134.46-53.59Q134.46-52.14 134.72-51.09L134.72-51.09Q135.38-52.32 135.69-53.62Q136.00-54.91 136.00-55.84L136.00-55.84Q136.00-56.93 135.60-56.93L135.60-56.93Q135.21-56.93 134.83-55.97Q134.46-55.00 134.46-53.59Z"></path></g></g></svg>