<svg version="1.1" xmlns="http://www.w3.org/2000/svg" xmlns:xlink="http://www.w3.org/1999/xlink" width="156.9478302001953" height="134.44955444335938"><defs></defs><g transform="translate(-89.199951171875,49.91398620605469)"><rect fill="rgb(255,255,255)" stroke="none" x="0" y="0" width="156.9478302001953" height="134.44955444335938" fill-opacity="0" transform="translate(89.199951171875,-49.91398620605469)"></rect><g transform="translate(78.9715391182765,67.37385194606807) rotate(7,0,0) translate(-78.9715391182765,-67.37385194606807) matrix(1,0,0,1,78.9715391182765,67.37385194606807)"><path fill="rgb(0,0,0)" fill-opacity="1" d="M21.54-112.90L21.54-112.90Q21.54-113.25 21.62-113.52Q21.71-113.78 22.06-114.00L22.06-114.00Q22.33-114.13 22.72-114.37Q23.12-114.62 23.51-114.62L23.51-114.62Q23.73-114.62 23.93-114.51Q24.13-114.40 24.13-114.18L24.13-114.18Q24.22-112.55 24.15-108.75Q24.08-104.95 23.86-99.85L23.86-99.85Q26.54-103.98 29.51-107.56Q32.48-111.14 35.51-113.78Q38.54-116.42 41.55-117.91Q44.56-119.41 47.37-119.41L47.37-119.41Q49.48-119.41 51.18-118.77Q52.87-118.13 54.10-116.66Q55.33-115.19 55.99-112.75Q56.65-110.31 56.65-106.70L56.65-106.70Q56.65-103.54 55.81-99.70Q54.98-95.85 53.46-91.92Q51.95-87.98 49.84-84.29Q47.73-80.60 45.16-77.74Q42.58-74.89 39.66-73.15Q36.74-71.42 33.58-71.42L33.58-71.42Q31.38-71.42 29.82-72.19Q28.26-72.95 27.14-74.14Q26.02-75.33 25.34-76.84Q24.66-78.36 24.26-79.81Q23.86-81.26 23.71-82.56Q23.56-83.85 23.51-84.64L23.51-84.64L24.39-84.82Q25.53-79.46 27.78-76.84Q30.02-74.23 34.15-74.23L34.15-74.23Q37.44-74.23 40.19-75.72Q42.94-77.22 45.09-79.70Q47.24-82.18 48.87-85.37Q50.49-88.56 51.55-91.92Q52.60-95.28 53.13-98.58Q53.66-101.87 53.66-104.55L53.66-104.55Q53.66-106.62 53.31-108.66Q52.96-110.70 52.10-112.33Q51.24-113.96 49.86-114.97Q48.47-115.98 46.36-115.98L46.36-115.98Q43.51-115.98 40.54-114.62Q37.58-113.25 34.67-110.81Q31.77-108.37 29.01-105.03Q26.24-101.70 23.78-97.70L23.78-97.70Q23.56-92.82 23.20-87.33Q22.85-81.83 22.33-76.43Q21.80-71.02 21.05-66.08Q20.30-61.13 19.32-57.35Q18.33-53.58 17.10-51.33Q15.87-49.09 14.33-49.09L14.33-49.09Q12.79-49.09 11.95-50.43Q11.12-51.77 10.70-53.68Q10.29-55.60 10.20-57.68Q10.11-59.77 10.11-61.27L10.11-61.27Q10.11-64.87 10.90-69.02Q11.69-73.17 13.14-77.57Q14.59-81.96 16.59-86.42Q18.59-90.88 21.01-95.10L21.01-95.10Q21.27-100.29 21.40-104.95Q21.54-109.61 21.54-112.90ZM14.50-52.87L14.50-52.87Q15.25-52.87 15.93-54.52Q16.61-56.17 17.23-59.05Q17.84-61.92 18.37-65.79Q18.90-69.66 19.36-74.08Q19.82-78.49 20.17-83.22Q20.52-87.94 20.79-92.55L20.79-92.55Q18.94-88.86 17.43-84.93Q15.91-81.00 14.81-77.00Q13.71-73.00 13.12-69.02Q12.53-65.04 12.53-61.27L12.53-61.27Q12.53-59.68 12.66-58.17Q12.79-56.65 13.05-55.46Q13.32-54.28 13.69-53.58Q14.06-52.87 14.50-52.87ZM64.95-61.62L64.95-61.62Q64.95-61.92 64.97-62.36Q65.00-62.80 65.00-63.24Q65.00-63.68 65.02-64.01Q65.04-64.34 65.04-64.47L65.04-64.47Q65.04-64.78 64.93-64.87Q64.82-64.96 64.69-64.39L64.69-64.39Q64.60-64.21 64.34-63.37Q64.07-62.54 63.59-61.38Q63.11-60.21 62.43-58.87Q61.74-57.53 60.82-56.41Q59.90-55.29 58.76-54.54Q57.61-53.79 56.25-53.79L56.25-53.79Q54.19-53.79 53.33-54.92Q52.47-56.04 52.47-58.28L52.47-58.28Q52.47-58.94 52.60-60.19Q52.74-61.44 52.91-62.78Q53.09-64.12 53.22-65.33Q53.35-66.54 53.35-67.20L53.35-67.20Q53.35-69.09 52.38-69.09L52.38-69.09Q52.16-69.09 51.99-69.04Q51.81-69.00 51.73-69.00L51.73-69.00Q51.37-69.00 51.37-69.35L51.37-69.35Q51.37-69.48 51.75-69.81Q52.12-70.14 53.35-70.14L53.35-70.14Q54.76-70.14 55.31-69.09Q55.86-68.03 55.86-66.63L55.86-66.63Q55.86-66.01 55.75-64.89Q55.64-63.77 55.50-62.54Q55.37-61.31 55.26-60.19Q55.15-59.07 55.15-58.54L55.15-58.54Q55.15-56.87 55.70-56.19Q56.25-55.51 57.22-55.51L57.22-55.51Q58.14-55.51 59.04-56.23Q59.94-56.96 60.71-57.99Q61.48-59.02 62.05-60.12Q62.62-61.22 62.98-61.97L62.98-61.97Q63.33-62.94 63.59-64.08Q63.85-65.22 64.10-66.39Q64.34-67.55 64.51-68.60Q64.69-69.66 64.87-70.45L64.87-70.45Q64.95-70.85 65.70-71.00Q66.45-71.15 67.19-71.15L67.19-71.15Q67.59-71.15 67.59-70.89L67.59-70.89Q67.59-69.79 67.55-67.90Q67.50-66.01 67.50-64.03L67.50-64.03Q67.50-59.11 68.10-56.94Q68.69-54.76 70.45-54.76L70.45-54.76Q70.84-54.76 71.13-54.85Q71.41-54.94 71.63-54.94L71.63-54.94Q71.81-54.94 71.81-54.76L71.81-54.76Q71.81-54.89 71.81-54.72Q71.81-54.54 71.61-54.26Q71.41-53.97 70.86-53.73Q70.31-53.49 69.22-53.49L69.22-53.49Q68.03-53.49 67.26-53.90Q66.49-54.32 66.01-55.29Q65.52-56.26 65.28-57.82Q65.04-59.38 64.95-61.62ZM73.43-57.57L72.91-57.93Q74.40-60.30 75.59-62.78Q76.77-65.26 77.57-67.64L77.57-67.64Q76.51-69.13 75.79-70.69Q75.06-72.25 75.06-73.92L75.06-73.92Q75.06-75.55 75.37-76.87Q75.68-78.18 76.20-79.11Q76.73-80.03 77.39-80.54Q78.05-81.04 78.75-81.04L78.75-81.04Q79.72-81.04 80.31-80.07Q80.91-79.11 80.82-77.61L80.82-77.61Q80.73-75.86 80.36-73.83Q79.98-71.81 79.28-69.70L79.28-69.70Q80.16-68.69 81.10-67.70Q82.05-66.71 82.82-65.66Q83.59-64.61 84.09-63.40Q84.60-62.19 84.60-60.78L84.60-60.78Q84.60-58.85 83.87-57.22Q83.15-55.60 82.14-54.41Q81.12-53.22 80.03-52.56Q78.93-51.91 78.14-51.91L78.14-51.91Q76.77-51.91 76.05-52.61Q75.32-53.31 75.32-54.15L75.32-54.15Q75.32-54.81 75.54-55.46Q75.76-56.12 76.05-56.67Q76.33-57.22 76.62-57.57Q76.91-57.93 77.04-57.93L77.04-57.93Q77.26-57.93 77.32-57.77Q77.39-57.62 77.39-57.49L77.39-57.49Q77.39-57.27 77.35-56.87Q77.30-56.48 77.30-56.21L77.30-56.21Q77.30-55.46 77.81-54.98Q78.31-54.50 79.45-54.50L79.45-54.50Q79.94-54.50 80.55-54.72Q81.17-54.94 81.74-55.42Q82.31-55.90 82.68-56.63Q83.06-57.35 83.06-58.37L83.06-58.37Q83.06-59.29 82.62-60.30Q82.18-61.31 81.48-62.36Q80.77-63.42 79.92-64.52Q79.06-65.62 78.22-66.76L78.22-66.76Q77.21-64.25 76.01-61.90Q74.80-59.55 73.43-57.57L73.43-57.57ZM76.25-76.21L76.25-76.21Q76.25-74.54 76.86-73.24Q77.48-71.94 78.49-70.71L78.49-70.71Q78.84-72.08 78.97-73.33Q79.10-74.58 79.10-75.72L79.10-75.72Q79.10-78.80 77.74-78.80L77.74-78.80Q77.35-78.80 76.80-78.21Q76.25-77.61 76.25-76.21ZM89.74-59.29L89.74-59.29Q89.74-60.43 89.87-63.00Q90.00-65.57 90.18-69.53Q90.35-73.48 90.49-78.76Q90.62-84.03 90.62-90.58L90.62-90.58Q90.62-93.78 90.60-96.75Q90.57-99.72 90.53-102.02Q90.49-104.33 90.46-105.76Q90.44-107.19 90.44-107.32L90.44-107.32Q90.44-107.67 90.55-107.94Q90.66-108.20 91.01-108.42L91.01-108.42Q91.28-108.55 91.65-108.79Q92.02-109.03 92.42-109.03L92.42-109.03Q92.90-109.03 93.17-108.77L93.17-108.77Q93.43-108.55 93.58-107.96Q93.74-107.36 93.83-105.94Q93.91-104.51 93.93-101.98Q93.96-99.45 93.96-95.45L93.96-95.45Q93.96-91.76 93.78-87.81Q93.61-83.85 93.36-80.03Q93.12-76.21 92.84-72.69Q92.55-69.18 92.31-66.36Q92.07-63.55 91.89-61.68Q91.72-59.82 91.72-59.29L91.72-59.29Q91.72-59.07 91.72-58.76Q91.72-58.45 91.76-58.17Q91.80-57.88 91.89-57.68Q91.98-57.49 92.16-57.49L92.16-57.49Q92.59-57.49 93.08-58.89Q93.56-60.30 94.31-62.67L94.31-62.67Q94.79-64.17 95.41-65.70Q96.02-67.24 96.70-68.49Q97.38-69.75 98.11-70.54Q98.83-71.33 99.54-71.33L99.54-71.33Q100.07-71.33 100.44-71.02Q100.81-70.71 101.08-70.25Q101.34-69.79 101.47-69.26Q101.60-68.74 101.69-68.25L101.69-68.25Q101.74-67.73 101.82-66.67Q101.91-65.62 102.00-64.25Q102.09-62.89 102.20-61.40Q102.31-59.90 102.44-58.54L102.44-58.54Q102.66-56.08 103.62-54.98Q104.59-53.88 106.13-53.88L106.13-53.88Q106.74-53.88 107.10-53.97Q107.45-54.06 107.76-54.06L107.76-54.06Q107.98-54.06 107.84-53.62L107.84-53.62Q107.76-53.44 107.10-53.03Q106.44-52.61 104.77-52.61L104.77-52.61Q103.36-52.61 102.42-53.07Q101.47-53.53 100.92-54.52Q100.37-55.51 100.09-57.11Q99.80-58.72 99.71-60.96L99.71-60.96Q99.63-62.23 99.56-63.62Q99.49-65.00 99.34-66.14Q99.19-67.29 98.92-68.01Q98.66-68.74 98.18-68.74L98.18-68.74Q97.78-68.74 97.30-67.84Q96.81-66.93 96.35-65.73Q95.89-64.52 95.49-63.31Q95.10-62.10 94.88-61.44L94.88-61.44Q94.70-60.91 94.35-59.68Q94.00-58.45 93.52-57.18Q93.03-55.90 92.46-54.94Q91.89-53.97 91.28-53.97L91.28-53.97Q90.75-53.97 90.44-54.56Q90.13-55.16 89.98-56.01Q89.83-56.87 89.78-57.77Q89.74-58.67 89.74-59.29ZM111.97-79.15L111.97-79.15Q112.19-79.15 112.13-78.29Q112.06-77.44 111.91-76.10Q111.75-74.76 111.58-73.13Q111.40-71.50 111.40-69.97L111.40-69.97Q111.40-66.85 111.47-64.12Q111.54-61.40 111.67-58.80L111.67-58.80Q113.12-61.22 114.63-63.20Q116.15-65.18 117.69-66.58Q119.23-67.99 120.76-68.76Q122.30-69.53 123.84-69.53L123.84-69.53Q125.07-69.53 125.91-68.85Q126.74-68.16 126.74-66.45L126.74-66.45Q126.74-65.22 126.23-63.97Q125.73-62.72 124.87-61.46Q124.02-60.21 122.94-59.02Q121.86-57.84 120.76-56.78L120.76-56.78Q118.13-54.32 114.83-51.99L114.83-51.99L114.39-52.52Q116.98-54.76 119.05-56.91L119.05-56.91Q119.93-57.84 120.76-58.83Q121.60-59.82 122.26-60.80Q122.92-61.79 123.33-62.69Q123.75-63.59 123.75-64.39L123.75-64.39Q123.75-64.65 123.69-65.09Q123.62-65.53 123.36-65.95Q123.09-66.36 122.59-66.65Q122.08-66.93 121.25-66.93L121.25-66.93Q120.24-66.93 119.09-66.23Q117.95-65.53 116.74-64.23Q115.53-62.94 114.28-61.07Q113.03-59.20 111.80-56.91L111.80-56.91Q111.97-53.75 112.19-50.81Q112.41-47.86 112.61-44.94Q112.81-42.02 112.92-38.99Q113.03-35.95 113.03-32.61L113.03-32.61Q113.03-24.88 112.17-19.08Q111.32-13.28 109.97-9.39Q108.63-5.50 106.94-3.54Q105.25-1.59 103.58-1.59L103.58-1.59Q102.61-1.59 101.67-2.38Q100.72-3.17 100.00-4.69Q99.27-6.20 98.81-8.40Q98.35-10.60 98.35-13.45L98.35-13.45Q98.35-17.63 99.14-22.73Q99.93-27.82 101.36-33.16Q102.79-38.50 104.72-43.80Q106.66-49.09 108.90-53.71L108.90-53.71L108.90-58.10Q108.90-63.29 109.32-67.22Q109.73-71.15 110.26-73.81Q110.79-76.47 111.29-77.81Q111.80-79.15 111.97-79.15ZM109.91-30.81L109.91-30.81Q109.91-34.68 109.80-37.29Q109.69-39.91 109.54-42.04Q109.38-44.17 109.23-46.28Q109.07-48.39 108.99-51.25L108.99-51.25Q107.32-47.47 105.87-43.14Q104.42-38.81 103.30-34.20Q102.17-29.58 101.54-24.88Q100.90-20.18 100.90-15.69L100.90-15.69Q100.90-13.98 101.08-11.87Q101.25-9.76 101.71-7.92Q102.17-6.07 102.90-4.82Q103.62-3.57 104.77-3.57L104.77-3.57Q105.65-3.57 106.39-4.66Q107.14-5.76 107.71-7.70Q108.28-9.63 108.70-12.24Q109.12-14.86 109.38-17.89Q109.65-20.92 109.78-24.22Q109.91-27.52 109.91-30.81ZM144.80-67.81L144.80-67.81Q144.41-67.81 144.08-68.27Q143.75-68.74 143.22-69.26Q142.69-69.79 141.88-70.25Q141.07-70.71 139.75-70.71L139.75-70.71Q137.90-70.71 136.32-69.77Q134.74-68.82 133.60-67.40Q132.45-65.97 131.82-64.28Q131.18-62.58 131.18-61.09L131.18-61.09Q131.18-58.76 132.37-57.27Q133.55-55.77 135.53-55.77L135.53-55.77Q137.07-55.77 138.23-56.37Q139.40-56.96 140.19-57.93L140.19-57.93Q139.92-59.11 139.92-60.87L139.92-60.87Q139.92-62.76 140.21-63.95Q140.49-65.13 140.91-65.79Q141.33-66.45 141.77-66.69Q142.21-66.93 142.52-66.93L142.52-66.93Q142.87-66.93 143.33-66.45Q143.79-65.97 143.79-64.74L143.79-64.74Q143.79-63.20 143.24-61.51Q142.69-59.82 141.73-58.28L141.73-58.28Q142.25-56.91 143.35-56.30Q144.45-55.68 145.86-55.68L145.86-55.68Q147.09-55.68 148.16-56.23Q149.24-56.78 150.18-57.71Q151.13-58.63 151.96-59.84Q152.80-61.05 153.50-62.32L153.50-62.32L153.77-62.14Q153.24-60.47 152.36-58.89Q151.48-57.31 150.34-56.08Q149.20-54.85 147.86-54.12Q146.52-53.40 145.07-53.40L145.07-53.40Q143.97-53.40 142.67-54.12Q141.37-54.85 140.54-56.74L140.54-56.74Q139.18-55.11 137.42-54.04Q135.66-52.96 133.64-52.96L133.64-52.96Q132.50-52.96 131.57-53.49Q130.65-54.01 130.01-54.89Q129.38-55.77 129.03-56.96Q128.67-58.15 128.67-59.46L128.67-59.46Q128.67-61.70 129.66-63.95Q130.65-66.19 132.30-67.99Q133.95-69.79 136.08-70.91Q138.21-72.03 140.54-72.03L140.54-72.03Q142.25-72.03 143.42-71.66Q144.58-71.28 145.29-70.78Q145.99-70.27 146.30-69.75Q146.60-69.22 146.60-68.91L146.60-68.91Q146.60-68.30 145.97-68.06Q145.33-67.81 144.80-67.81ZM141.11-61.97L141.11-61.97Q141.11-60.52 141.37-59.46L141.37-59.46Q142.03-60.69 142.34-61.99Q142.65-63.29 142.65-64.21L142.65-64.21Q142.65-65.31 142.25-65.31L142.25-65.31Q141.86-65.31 141.48-64.34Q141.11-63.37 141.11-61.97Z"></path></g></g></svg>