<svg version="1.1" xmlns="http://www.w3.org/2000/svg" xmlns:xlink="http://www.w3.org/1999/xlink"
    width="98.97000122070312" height="73.63998413085938">
    <defs></defs>
    <g transform="translate(-50.947208404541016,38.92999267578125)">
        <rect fill="rgb(255,255,255)" stroke="none" x="0" y="0" width="98.97000122070312"
            height="73.63998413085938" fill-opacity="0"
            transform="translate(50.947208404541016,-38.92999267578125)"></rect>
        <g
            transform="translate(49.63720703125,37.5) rotate(0,0,0) translate(-49.63720703125,-37.5) matrix(1,0,0,1,49.63720703125,37.5)">
            <title>BuffeDon</title>
            <style>@keyframes grow{0%{stroke-dashoffset:1px;stroke-dasharray:0
                350px;opacity:0}10%{opacity:1;transform:translate(0,1%)}20%{transform:translate(0,0)}40%,85%{stroke-dasharray:350px
                0}95%{stroke-dasharray:0 350px}}@media
                (prefers-reduced-motion){path{animation:none!important;stroke-dasharray:unset!important}}path{stroke-dashoffset:1px;stroke-dasharray:350px
                0;animation:grow 10s ease forwards
                infinite;transform-origin:center;stroke:#303030;animation-delay:10s}@media
                (prefers-color-scheme:dark){path{stroke:#fdfdfd}}</style>
            <path fill="rgb(0,0,0)" fill-opacity="1"
                d="M15.24-29.70L15.56-30.09Q16.07-29.73 16.52-29.44Q16.98-29.15 17.49-28.86L17.49-28.86Q17.39-30.41 17.35-31.89Q17.30-33.38 17.23-34.86L17.23-34.86Q15.91-34.95 15.07-35.28Q14.24-35.60 14.24-36.24L14.24-36.24Q14.24-36.95 15.03-37.31Q15.82-37.66 17.17-37.76L17.17-37.76L17.17-41.59Q17.17-45.46 17.23-49.07Q17.30-52.68 17.46-56.22Q17.62-59.77 17.91-63.35Q18.20-66.92 18.68-70.69L18.68-70.69Q15.36-69.47 12.35-67.73Q9.34-65.99 7.05-63.75Q4.76-61.51 3.41-58.79Q2.05-56.06 2.05-52.94L2.05-52.94Q2.05-52.26 2.28-51.37Q2.51-50.49 2.96-49.57Q3.41-48.65 4.08-47.80Q4.76-46.94 5.66-46.33L5.66-46.33L5.28-45.88Q4.28-46.56 3.54-47.47Q2.80-48.39 2.30-49.38Q1.80-50.36 1.56-51.34Q1.31-52.32 1.31-53.19L1.31-53.19Q1.31-56.48 2.80-59.38Q4.28-62.28 6.74-64.73Q9.21-67.18 12.37-69.15Q15.53-71.11 18.88-72.53L18.88-72.53Q18.94-72.88 19.01-73.27Q19.07-73.66 19.13-74.04L19.13-74.04Q19.20-74.46 19.26-74.92Q19.33-75.37 19.33-75.43L19.33-75.43Q19.33-75.75 19.31-76.09Q19.30-76.43 19.59-76.43L19.59-76.43Q19.78-76.43 20.00-76.30Q20.23-76.17 20.42-75.98Q20.62-75.79 20.76-75.54Q20.91-75.30 20.91-75.11L20.91-75.11Q20.84-74.63 20.78-74.17Q20.71-73.72 20.65-73.27L20.65-73.27Q23.84-74.40 26.84-75.03Q29.83-75.66 32.28-75.66L32.28-75.66Q35.60-75.66 38.58-74.85Q41.56-74.04 43.82-72.32Q46.08-70.60 47.38-67.87Q48.69-65.15 48.69-61.32L48.69-61.32Q48.69-57.90 47.82-54.87Q46.95-51.84 45.40-49.21Q43.85-46.59 41.73-44.38Q39.60-42.17 37.10-40.45Q34.60-38.72 31.82-37.50Q29.03-36.28 26.19-35.57L26.19-35.57Q27.00-34.83 27.38-33.87Q27.77-32.92 27.77-31.83L27.77-31.83Q27.77-30.89 27.45-29.98Q27.13-29.06 26.47-28.30Q25.81-27.54 24.79-27.07Q23.78-26.61 22.42-26.61L22.42-26.61Q21.65-26.61 20.91-26.74Q20.17-26.87 19.52-27.06L19.52-27.06Q19.59-26.48 19.62-25.90Q19.65-25.32 19.71-24.77L19.71-24.77Q19.71-24.61 19.75-24.30Q19.78-24.00 19.78-23.90L19.78-23.90Q19.78-23.61 19.54-23.38Q19.30-23.16 19.13-23.16L19.13-23.16Q18.07-23.16 17.88-24.77L17.88-24.77Q17.78-25.61 17.70-26.40Q17.62-27.19 17.56-27.99L17.56-27.99Q16.81-28.44 16.23-28.90Q15.65-29.35 15.24-29.70L15.24-29.70ZM19.07-46.94L19.07-46.94Q19.07-45.11 19.04-42.77Q19.01-40.43 19.07-37.89L19.07-37.89L19.65-37.89Q21.39-37.89 22.84-37.48Q24.29-37.08 25.32-36.37L25.32-36.37Q28.09-36.89 30.74-37.94Q33.38-38.98 35.72-40.51Q38.05-42.04 40.00-44.07Q41.95-46.10 43.35-48.62Q44.75-51.13 45.54-54.13Q46.33-57.13 46.33-60.61L46.33-60.61Q46.33-63.47 45.33-65.83Q44.34-68.18 42.52-69.84Q40.69-71.50 38.15-72.42Q35.60-73.34 32.48-73.34L32.48-73.34Q29.67-73.34 26.61-72.84Q23.55-72.34 20.46-71.34L20.46-71.34Q19.94-66.54 19.65-62.91Q19.36-59.29 19.23-56.43Q19.10-53.58 19.09-51.31Q19.07-49.04 19.07-46.94ZM19.46-34.79L19.13-34.79Q19.20-33.05 19.28-31.36Q19.36-29.67 19.46-28.06L19.46-28.06Q19.91-27.90 20.38-27.85Q20.84-27.80 21.39-27.80L21.39-27.80Q23.74-27.80 24.84-29.06Q25.93-30.31 25.93-32.15L25.93-32.15Q25.93-34.12 24.81-35.31L24.81-35.31Q23.45-35.02 22.10-34.91Q20.75-34.79 19.46-34.79L19.46-34.79ZM19.13-36.95L19.13-35.79L19.26-35.79Q20.39-35.79 21.52-35.86Q22.65-35.92 23.74-36.11L23.74-36.11Q23.00-36.50 22.02-36.73Q21.04-36.95 19.78-36.95L19.78-36.95L19.13-36.95ZM17.23-35.86L17.23-35.86Q17.23-36.11 17.20-36.34Q17.17-36.57 17.17-36.82L17.17-36.82Q16.04-36.63 16.04-36.24L16.04-36.24Q16.04-36.05 16.38-35.99Q16.72-35.92 17.23-35.86ZM56.16-33.28L56.16-33.28Q56.16-33.50 56.18-33.83Q56.20-34.15 56.20-34.47Q56.20-34.79 56.21-35.03Q56.23-35.28 56.23-35.37L56.23-35.37Q56.23-35.60 56.15-35.66Q56.07-35.73 55.97-35.31L55.97-35.31Q55.91-35.18 55.71-34.57Q55.52-33.96 55.16-33.10Q54.81-32.25 54.31-31.26Q53.81-30.28 53.13-29.46Q52.46-28.64 51.62-28.09Q50.78-27.54 49.78-27.54L49.78-27.54Q48.27-27.54 47.64-28.36Q47.01-29.19 47.01-30.83L47.01-30.83Q47.01-31.31 47.11-32.23Q47.20-33.15 47.33-34.13Q47.46-35.12 47.56-36.00Q47.66-36.89 47.66-37.37L47.66-37.37Q47.66-38.76 46.95-38.76L46.95-38.76Q46.79-38.76 46.66-38.72Q46.53-38.69 46.46-38.69L46.46-38.69Q46.21-38.69 46.21-38.95L46.21-38.95Q46.21-39.05 46.48-39.29Q46.75-39.53 47.66-39.53L47.66-39.53Q48.69-39.53 49.09-38.76Q49.49-37.98 49.49-36.95L49.49-36.95Q49.49-36.50 49.41-35.68Q49.33-34.86 49.23-33.96Q49.14-33.05 49.06-32.23Q48.98-31.41 48.98-31.02L48.98-31.02Q48.98-29.80 49.38-29.30Q49.78-28.80 50.49-28.80L50.49-28.80Q51.17-28.80 51.83-29.33Q52.49-29.86 53.05-30.62Q53.62-31.38 54.04-32.18Q54.46-32.99 54.71-33.54L54.71-33.54Q54.97-34.25 55.16-35.08Q55.36-35.92 55.53-36.77Q55.71-37.63 55.84-38.40Q55.97-39.18 56.10-39.76L56.10-39.76Q56.16-40.05 56.71-40.16Q57.26-40.27 57.81-40.27L57.81-40.27Q58.10-40.27 58.10-40.08L58.10-40.08Q58.10-39.27 58.06-37.89Q58.03-36.50 58.03-35.05L58.03-35.05Q58.03-31.44 58.47-29.85Q58.90-28.25 60.19-28.25L60.19-28.25Q60.48-28.25 60.69-28.32Q60.90-28.38 61.06-28.38L61.06-28.38Q61.19-28.38 61.19-28.25L61.19-28.25Q61.19-28.35 61.19-28.22Q61.19-28.09 61.05-27.88Q60.90-27.67 60.50-27.49Q60.09-27.32 59.29-27.32L59.29-27.32Q58.42-27.32 57.85-27.62Q57.29-27.93 56.94-28.64Q56.58-29.35 56.40-30.49Q56.23-31.63 56.16-33.28ZM66.60-2.79L66.60-2.79Q65.73-2.79 65.04-3.19Q64.35-3.60 63.88-4.63Q63.41-5.66 63.17-7.40Q62.93-9.14 62.93-11.82L62.93-11.82Q62.93-17.62 62.93-21.89Q62.93-26.16 62.95-29.28Q62.96-32.41 62.96-34.60Q62.96-36.79 62.98-38.48Q63.00-40.17 63.00-41.58Q63.00-42.98 63.00-44.49L63.00-44.49Q63.00-46.94 63.19-49.58Q63.38-52.23 63.78-54.77Q64.19-57.32 64.83-59.61Q65.48-61.90 66.38-63.64Q67.28-65.38 68.47-66.39Q69.67-67.41 71.18-67.41L71.18-67.41Q71.76-67.41 72.34-67.04Q72.92-66.67 73.39-65.91Q73.86-65.15 74.13-64.02Q74.40-62.89 74.40-61.38L74.40-61.38Q74.40-58.74 73.84-56.00Q73.28-53.26 72.37-50.62Q71.47-47.97 70.38-45.56Q69.28-43.14 68.25-41.14Q67.22-39.14 66.35-37.69Q65.48-36.24 65.03-35.57L65.03-35.57Q65.03-35.47 65.01-35.32Q64.99-35.18 64.99-34.87Q64.99-34.57 64.99-34.04Q64.99-33.50 65.03-32.60L65.03-32.60Q65.12-31.67 65.46-30.94Q65.80-30.22 66.30-29.72Q66.80-29.22 67.39-28.96Q67.99-28.70 68.60-28.70L68.60-28.70Q69.89-28.70 70.87-29.23Q71.86-29.77 72.63-30.59Q73.40-31.41 73.98-32.42Q74.56-33.44 75.05-34.41L75.05-34.41L75.27-34.28Q74.98-33.54 74.45-32.34Q73.92-31.15 73.10-30.02Q72.28-28.90 71.12-28.07Q69.96-27.25 68.41-27.25L68.41-27.25Q67.96-27.25 67.43-27.33Q66.89-27.41 66.35-27.74L66.35-27.74Q67.15-25.71 67.83-23.76Q68.51-21.81 69.01-19.74Q69.50-17.68 69.78-15.41Q70.05-13.14 70.05-10.43L70.05-10.43Q70.05-8.72 69.78-7.32Q69.50-5.92 69.05-4.90Q68.60-3.89 67.96-3.34Q67.31-2.79 66.60-2.79ZM65.15-44.69L65.15-44.69Q65.15-43.75 65.14-42.69Q65.12-41.63 65.09-40.61Q65.06-39.59 65.04-38.66Q65.03-37.73 65.03-37.05L65.03-37.05Q65.57-38.08 66.36-39.59Q67.15-41.11 68.01-42.93Q68.86-44.75 69.68-46.85Q70.50-48.94 71.16-51.13Q71.83-53.32 72.23-55.58Q72.63-57.83 72.63-59.99L72.63-59.99Q72.63-61.15 72.52-62.20Q72.41-63.25 72.10-64.02Q71.79-64.80 71.26-65.26Q70.73-65.73 69.86-65.73L69.86-65.73Q68.96-65.73 68.25-64.91Q67.54-64.09 67.02-62.62Q66.51-61.15 66.15-59.16Q65.80-57.16 65.57-54.82Q65.35-52.49 65.25-49.89Q65.15-47.30 65.15-44.69ZM68.73-11.56L68.73-11.56Q68.73-14.10 68.41-16.42Q68.09-18.74 67.57-20.89Q67.06-23.03 66.38-25.04Q65.70-27.06 65.03-28.99L65.03-28.99L65.03-23.51Q65.03-21.19 65.01-18.86Q64.99-16.52 65.03-14.36Q65.06-12.20 65.14-10.33Q65.22-8.46 65.38-7.08Q65.54-5.69 65.85-4.90Q66.15-4.11 66.60-4.11L66.60-4.11Q67.09-4.11 67.49-4.48Q67.89-4.85 68.17-5.71Q68.44-6.56 68.59-8.00Q68.73-9.43 68.73-11.56ZM77.82-2.79L77.82-2.79Q76.95-2.79 76.26-3.19Q75.56-3.60 75.10-4.63Q74.63-5.66 74.39-7.40Q74.15-9.14 74.15-11.82L74.15-11.82Q74.15-17.62 74.15-21.89Q74.15-26.16 74.16-29.28Q74.18-32.41 74.18-34.60Q74.18-36.79 74.19-38.48Q74.21-40.17 74.21-41.58Q74.21-42.98 74.21-44.49L74.21-44.49Q74.21-46.94 74.40-49.58Q74.60-52.23 75.00-54.77Q75.40-57.32 76.05-59.61Q76.69-61.90 77.59-63.64Q78.50-65.38 79.69-66.39Q80.88-67.41 82.40-67.41L82.40-67.41Q82.98-67.41 83.56-67.04Q84.14-66.67 84.60-65.91Q85.07-65.15 85.34-64.02Q85.62-62.89 85.62-61.38L85.62-61.38Q85.62-58.74 85.05-56.00Q84.49-53.26 83.59-50.62Q82.69-47.97 81.59-45.56Q80.49-43.14 79.46-41.14Q78.43-39.14 77.56-37.69Q76.69-36.24 76.24-35.57L76.24-35.57Q76.24-35.47 76.22-35.32Q76.21-35.18 76.21-34.87Q76.21-34.57 76.21-34.04Q76.21-33.50 76.24-32.60L76.24-32.60Q76.34-31.67 76.68-30.94Q77.01-30.22 77.51-29.72Q78.01-29.22 78.61-28.96Q79.21-28.70 79.82-28.70L79.82-28.70Q81.11-28.70 82.09-29.23Q83.07-29.77 83.85-30.59Q84.62-31.41 85.20-32.42Q85.78-33.44 86.26-34.41L86.26-34.41L86.49-34.28Q86.20-33.54 85.67-32.34Q85.13-31.15 84.31-30.02Q83.49-28.90 82.33-28.07Q81.17-27.25 79.62-27.25L79.62-27.25Q79.17-27.25 78.64-27.33Q78.11-27.41 77.56-27.74L77.56-27.74Q78.37-25.71 79.04-23.76Q79.72-21.81 80.22-19.74Q80.72-17.68 80.99-15.41Q81.27-13.14 81.27-10.43L81.27-10.43Q81.27-8.72 80.99-7.32Q80.72-5.92 80.27-4.90Q79.82-3.89 79.17-3.34Q78.53-2.79 77.82-2.79ZM76.37-44.69L76.37-44.69Q76.37-43.75 76.35-42.69Q76.34-41.63 76.30-40.61Q76.27-39.59 76.26-38.66Q76.24-37.73 76.24-37.05L76.24-37.05Q76.79-38.08 77.58-39.59Q78.37-41.11 79.22-42.93Q80.08-44.75 80.90-46.85Q81.72-48.94 82.38-51.13Q83.04-53.32 83.44-55.58Q83.85-57.83 83.85-59.99L83.85-59.99Q83.85-61.15 83.73-62.20Q83.62-63.25 83.31-64.02Q83.01-64.80 82.48-65.26Q81.94-65.73 81.07-65.73L81.07-65.73Q80.17-65.73 79.46-64.91Q78.75-64.09 78.24-62.62Q77.72-61.15 77.37-59.16Q77.01-57.16 76.79-54.82Q76.56-52.49 76.47-49.89Q76.37-47.30 76.37-44.69ZM79.95-11.56L79.95-11.56Q79.95-14.10 79.62-16.42Q79.30-18.74 78.79-20.89Q78.27-23.03 77.59-25.04Q76.92-27.06 76.24-28.99L76.24-28.99L76.24-23.51Q76.24-21.19 76.22-18.86Q76.21-16.52 76.24-14.36Q76.27-12.20 76.35-10.33Q76.43-8.46 76.59-7.08Q76.76-5.69 77.06-4.90Q77.37-4.11 77.82-4.11L77.82-4.11Q78.30-4.11 78.71-4.48Q79.11-4.85 79.38-5.71Q79.66-6.56 79.80-8.00Q79.95-9.43 79.95-11.56ZM94.13-42.59L94.13-42.59Q94.54-42.50 94.54-42.04L94.54-42.04Q94.54-41.92 94.46-41.71Q94.38-41.50 94.27-41.29Q94.16-41.08 94.03-40.93Q93.90-40.79 93.80-40.79L93.80-40.79Q93.64-40.79 93.42-40.90Q93.19-41.01 92.77-41.16Q92.35-41.30 91.68-41.42Q91-41.53 89.90-41.53L89.90-41.53Q88.36-41.53 87.33-40.95Q86.29-40.37 86.29-39.34L86.29-39.34Q86.29-38.60 86.92-38.10Q87.55-37.60 88.41-37.31Q89.26-37.02 90.15-36.89Q91.03-36.76 91.52-36.76L91.52-36.76Q91.87-36.76 91.98-36.65Q92.10-36.53 92.10-36.44L92.10-36.44Q92.10-36.18 91.89-36.13Q91.68-36.08 91.35-35.99L91.35-35.99Q90.52-35.70 89.65-35.26Q88.78-34.83 88.05-34.23Q87.33-33.63 86.88-32.89Q86.42-32.15 86.42-31.28L86.42-31.28Q86.42-29.83 87.60-28.88Q88.78-27.93 90.90-27.93L90.90-27.93Q93.32-27.93 94.93-28.65Q96.54-29.38 97.59-30.35Q98.64-31.31 99.22-32.30Q99.80-33.28 100.09-33.79L100.09-33.79L100.28-33.67Q99.73-32.09 98.88-30.73Q98.03-29.38 96.82-28.40Q95.61-27.41 94.00-26.85Q92.39-26.29 90.32-26.29L90.32-26.29Q89.07-26.29 88.00-26.59Q86.94-26.90 86.17-27.45Q85.39-27.99 84.97-28.80Q84.55-29.60 84.55-30.64L84.55-30.64Q84.55-31.83 85.10-32.70Q85.65-33.57 86.36-34.13Q87.07-34.70 87.76-35.00Q88.45-35.31 88.74-35.44L88.74-35.44Q87.75-35.60 86.97-35.99L86.97-35.99Q86.33-36.34 85.78-36.97Q85.23-37.60 85.23-38.69L85.23-38.69Q85.23-39.69 85.71-40.51Q86.20-41.33 87.02-41.88Q87.84-42.43 88.92-42.74Q90.00-43.04 91.23-43.04L91.23-43.04Q91.93-43.04 92.66-42.95Q93.38-42.85 94.13-42.59Z"></path>
        </g>
    </g>
</svg>